# xmcd CD database file
#
# Track frame offsets:
#	183
#	21855
#	40420
#	50878
#	59860
#	72423
#	91863
#	104518
#	124978
#	142000
#	159883
#	171643
#	182583
#	198165
#	209463
#	224040
#
# Disc length: 3154 seconds
#
# Revision: 5
# Processed by: cddbd v1.5.2PL0 Copyright (c) Steve Scherf et al.
# Submitted via: CDex 1.51
#
DISCID=050c5010
DTITLE=Jonny Hill - Meilensteine
DYEAR=1994
DGENRE=Country
TTITLE0=Ruf Teddybär Eins-Vier
TTITLE1=Sylvias Mutter
TTITLE2=König Der Landstarße
TTITLE3=Ein Ring Aus Feuer
TTITLE4=500 Meilen Von Zu Haus
TTITLE5=Der Alte Man
TTITLE6=Kann Liebe Alles Verzeihn
TTITLE7=Der Feigling
TTITLE8=Wo Der Mond Versinkt
TTITLE9=Der Alte Fluß
TTITLE10=Mehr Hinterm Lenkrad Als Zuhaus
TTITLE11=Die Arbeit Hört Nie Auf
TTITLE12=Lucille
TTITLE13=Tennessee Waltz
TTITLE14=Nur Noch Einmal Nach Haus
TTITLE15=Green Green Grass Of Home
EXTD=YEAR: 1994
EXTT0=
EXTT1=
EXTT2=
EXTT3=
EXTT4=
EXTT5=
EXTT6=
EXTT7=
EXTT8=
EXTT9=
EXTT10=
EXTT11=
EXTT12=
EXTT13=
EXTT14=
EXTT15=
PLAYORDER=
